<svg xmlns="http://www.w3.org/2000/svg" viewBox="0 0 480 160" width="480" height="160">
  <defs>
    <linearGradient id="bar" x1="0%" y1="0%" x2="0%" y2="100%">
      <stop offset="0%" stop-color="#2a2018"/>
      <stop offset="100%" stop-color="#12100c"/>
    </linearGradient>
  </defs>
  <rect x="20" y="70" width="440" height="70" rx="4" fill="url(#bar)"/>
  <rect x="30" y="50" width="420" height="28" rx="3" fill="#1a1814"/>
  <!-- bottle silhouettes -->
  <rect x="55" y="25" width="18" height="40" rx="3" fill="#0e0c10" opacity="0.8"/>
  <rect x="85" y="20" width="14" height="45" rx="2" fill="#0e0c10" opacity="0.75"/>
  <rect x="115" y="28" width="16" height="38" rx="2" fill="#0e0c10" opacity="0.8"/>
  <rect x="145" y="22" width="12" height="44" rx="2" fill="#0e0c10" opacity="0.7"/>
  <rect x="175" y="26" width="18" height="40" rx="3" fill="#0e0c10" opacity="0.8"/>
  <rect x="280" y="24" width="16" height="42" rx="2" fill="#0e0c10" opacity="0.75"/>
  <rect x="310" y="20" width="14" height="46" rx="2" fill="#0e0c10" opacity="0.8"/>
  <rect x="340" y="28" width="18" height="38" rx="3" fill="#0e0c10" opacity="0.7"/>
  <rect x="375" y="22" width="12" height="44" rx="2" fill="#0e0c10" opacity="0.75"/>
  <rect x="400" y="26" width="16" height="40" rx="2" fill="#0e0c10" opacity="0.8"/>
  <!-- mirror back -->
  <rect x="200" y="15" width="60" height="50" rx="2" fill="#1a2838" opacity="0.4"/>
  <!-- foot rail -->
  <rect x="40" y="135" width="400" height="8" rx="2" fill="#0a0808"/>
</svg>
