<svg xmlns="http://www.w3.org/2000/svg" width="320" height="320" viewBox="0 0 320 320">
  <defs>
    <pattern id="dark-carpet" width="320" height="320" patternUnits="userSpaceOnUse">
      <rect width="320" height="320" fill="#0e0c14"/>
      <!-- hex grid -->
      <path d="M80 40 L120 40 L140 75 L120 110 L80 110 L60 75 Z" fill="none" stroke="#1a1828" stroke-width="0.8"/>
      <path d="M200 40 L240 40 L260 75 L240 110 L200 110 L180 75 Z" fill="none" stroke="#1a1828" stroke-width="0.8"/>
      <path d="M80 210 L120 210 L140 245 L120 280 L80 280 L60 245 Z" fill="none" stroke="#1a1828" stroke-width="0.8"/>
      <path d="M200 210 L240 210 L260 245 L240 280 L200 280 L180 245 Z" fill="none" stroke="#1a1828" stroke-width="0.8"/>
      <path d="M140 125 L180 125 L200 160 L180 195 L140 195 L120 160 Z" fill="#12101a" stroke="#222030" stroke-width="0.6"/>
      <!-- subtle blue accent -->
      <circle cx="160" cy="160" r="24" fill="none" stroke="#1a2840" stroke-width="1"/>
      <circle cx="160" cy="160" r="12" fill="#141828" opacity="0.6"/>
      <line x1="0" y1="160" x2="320" y2="160" stroke="#161420" stroke-width="0.4"/>
      <line x1="160" y1="0" x2="160" y2="320" stroke="#161420" stroke-width="0.4"/>
    </pattern>
  </defs>
  <rect width="320" height="320" fill="url(#dark-carpet)"/>
  <rect width="320" height="320" fill="#000" opacity="0.15"/>
</svg>
